# Blender v2.71 (sub 0) OBJ File: ''
# www.blender.org
mtllib glassMat.mtl
o glass
v -1.867780 4.551300 3.379011
v -1.926580 4.541790 3.378841
v -1.867780 4.302969 3.756351
v -2.132050 4.597420 2.570831
v -2.239580 4.363939 2.570831
v -2.231200 4.353899 2.815071
v -2.126210 4.577859 2.816221
v -1.939870 4.232550 3.756211
v -1.913220 4.267759 3.756281
v -1.980810 4.508420 3.378831
v -2.042380 4.438509 3.378831
v -1.867780 4.698540 3.053931
v -1.944950 4.677380 3.054871
v -2.031370 4.690969 2.816171
v -2.039570 4.714829 2.570831
v -2.097440 4.281330 3.378831
v -2.103030 4.567070 2.057671
v -2.017890 4.679379 2.058221
v -1.996280 4.606040 1.795981
v -2.079750 4.511169 1.788011
v -2.046550 4.410590 1.481271
v -2.134480 4.391970 1.783521
v -1.935040 4.660480 1.800751
v -1.919150 4.560540 1.486651
v -1.964110 4.508649 1.485371
v -2.134210 4.604959 2.348321
v -2.232200 4.372729 2.348321
v -1.867780 4.766119 2.054991
v -1.867780 4.687729 1.805901
v -1.945840 4.736350 2.056431
v -2.195860 4.378330 2.054651
v -1.867780 4.793049 2.570841
v -1.959580 4.770390 2.570831
v -1.958360 4.738639 2.816031
v -1.867780 4.767399 2.816121
v -2.094050 4.534190 3.057611
v -2.016090 4.629039 3.056041
v -2.188780 4.327750 3.064381
v -1.954540 4.779039 2.348321
v -2.035280 4.723110 2.348321
v -1.867780 4.804770 2.348331
v -1.867780 4.580810 1.491371
v -1.808990 4.541790 3.378841
v -1.609360 4.577859 2.816221
v -1.504370 4.353899 2.815071
v -1.495990 4.363939 2.570831
v -1.603520 4.597420 2.570831
v -1.693190 4.438509 3.378831
v -1.754760 4.508420 3.378831
v -1.822350 4.267759 3.756281
v -1.795700 4.232550 3.756211
v -1.790620 4.677380 3.054871
v -1.696000 4.714829 2.570831
v -1.704200 4.690969 2.816171
v -1.638130 4.281330 3.378831
v -1.655820 4.511169 1.788011
v -1.739290 4.606040 1.795981
v -1.717680 4.679379 2.058221
v -1.632540 4.567070 2.057671
v -1.601090 4.391970 1.783521
v -1.689020 4.410590 1.481271
v -1.771460 4.508649 1.485371
v -1.816420 4.560540 1.486651
v -1.800530 4.660480 1.800751
v -1.503370 4.372729 2.348321
v -1.601360 4.604959 2.348321
v -1.789730 4.736350 2.056431
v -1.539710 4.378330 2.054651
v -1.777210 4.738639 2.816031
v -1.775990 4.770390 2.570831
v -1.719480 4.629039 3.056041
v -1.641520 4.534190 3.057611
v -1.546790 4.327750 3.064381
v -1.700290 4.723110 2.348321
v -1.781030 4.779039 2.348321
vt 0.304797 0.787295
vt 0.327322 0.788903
vt 0.304842 0.964935
vt 0.434618 0.482812
vt 0.544940 0.491967
vt 0.529990 0.602274
vt 0.343006 0.981090
vt 0.326864 0.972885
vt 0.350883 0.794892
vt 0.304777 0.655243
vt 0.427552 0.580964
vt 0.371402 0.571634
vt 0.376219 0.479071
vt 0.384491 0.808061
vt 0.442873 0.841826
vt 0.371848 0.282528
vt 0.367148 0.172230
vt 0.418568 0.158293
vt 0.410794 0.018888
vt 0.472848 0.141870
vt 0.334161 0.180357
vt 0.328070 0.041086
vt 0.356684 0.033531
vt 0.434159 0.393186
vt 0.543502 0.389104
vt 0.304752 0.287784
vt 0.304751 0.185538
vt 0.428044 0.273773
vt 0.517384 0.257121
vt 0.304760 0.476741
vt 0.339752 0.477404
vt 0.339271 0.567965
vt 0.411683 0.677762
vt 0.365873 0.664626
vt 0.500283 0.711754
vt 0.337735 0.395822
vt 0.336404 0.286020
vt 0.304767 0.565833
vt 0.334197 0.658204
vt 0.304756 0.396120
vt 0.374249 0.395036
vt 0.304753 0.045665
vt 0.282277 0.788911
vt 0.079540 0.602321
vt 0.064571 0.492000
vt 0.174903 0.482830
vt 0.258718 0.794909
vt 0.282823 0.972897
vt 0.266682 0.981112
vt 0.275362 0.658212
vt 0.233304 0.479081
vt 0.238136 0.571647
vt 0.181985 0.580989
vt 0.166740 0.841882
vt 0.225113 0.808092
vt 0.190937 0.158292
vt 0.242358 0.172231
vt 0.237658 0.282531
vt 0.136656 0.141867
vt 0.198719 0.018888
vt 0.252827 0.033532
vt 0.281440 0.041087
vt 0.275344 0.180357
vt 0.065999 0.389124
vt 0.175352 0.393198
vt 0.092114 0.257126
vt 0.181461 0.273778
vt 0.270267 0.567971
vt 0.269772 0.477409
vt 0.243686 0.664641
vt 0.197877 0.677790
vt 0.109277 0.711811
vt 0.273104 0.286022
vt 0.271779 0.395825
vt 0.235265 0.395042
vn 0.000000 0.877600 0.479400
vn -0.316700 0.826700 0.464900
vn 0.000100 0.801700 0.597800
vn -0.849600 0.525800 0.040100
vn -0.911500 0.410400 0.025900
vn -0.899400 0.419100 0.124400
vn -0.698300 0.539600 0.470200
vn -0.632400 0.600000 0.489900
vn -0.526100 0.709000 0.469700
vn 0.093900 0.930200 0.354800
vn -0.836200 0.531100 0.136700
vn -0.653700 0.738700 0.164300
vn -0.682700 0.728900 0.050500
vn -0.864900 0.303000 0.400300
vn -0.851000 0.422300 0.312300
vn -0.882500 0.329000 0.336000
vn -0.681300 0.692700 -0.236600
vn -0.671600 0.691100 -0.266900
vn -0.811700 0.536900 -0.229900
vn -0.766200 0.584300 -0.267300
vn -0.885800 0.419700 -0.197800
vn -0.495200 0.822000 -0.281200
vn -0.568400 0.774900 -0.276500
vn -0.723500 0.638600 -0.262000
vn -0.844600 0.531500 -0.063900
vn -0.919700 0.388100 -0.059000
vn -0.345700 0.895400 -0.280600
vn -0.339500 0.894600 -0.290600
vn -0.838900 0.523200 -0.149800
vn -0.900200 0.415300 -0.131500
vn -0.246100 0.965500 0.085000
vn -0.411500 0.908400 0.073900
vn -0.418800 0.890300 0.178900
vn -0.819800 0.515400 0.249500
vn -0.684500 0.685400 0.248300
vn -0.875700 0.410500 0.254100
vn -0.431000 0.900200 -0.062500
vn -0.487700 0.863100 -0.131100
vn -0.706700 0.693900 -0.138400
vn -0.294200 0.939500 0.175400
vn -0.413100 0.874600 0.253700
vn -0.833000 0.521900 -0.183700
vn -0.475600 0.836300 -0.272600
vn -0.284800 0.957100 -0.052900
vn -0.371900 0.849700 0.373700
vn -0.674000 0.735600 -0.068300
vn -0.325300 0.895300 -0.304300
vn 0.316700 0.826700 0.464900
vn 0.899400 0.419100 0.124400
vn 0.911500 0.410400 0.025900
vn 0.849600 0.525800 0.040100
vn 0.583400 0.690500 0.427700
vn 0.632500 0.600000 0.489900
vn 0.741400 0.490400 0.458100
vn 0.394000 0.864400 0.312400
vn 0.682700 0.728900 0.050500
vn 0.653700 0.738700 0.164300
vn 0.836200 0.531100 0.136700
vn 0.882500 0.329000 0.336000
vn 0.801900 0.471000 0.367500
vn 0.811700 0.536900 -0.229900
vn 0.671600 0.691100 -0.266900
vn 0.695100 0.694200 -0.186700
vn 0.885800 0.419700 -0.197800
vn 0.766200 0.584300 -0.267300
vn 0.723500 0.638600 -0.262000
vn 0.568400 0.774900 -0.276500
vn 0.495200 0.822000 -0.281200
vn 0.919700 0.388100 -0.059000
vn 0.844600 0.531500 -0.063900
vn 0.339500 0.894600 -0.290600
vn 0.352100 0.914600 -0.198900
vn 0.891900 0.425400 -0.153300
vn 0.836100 0.522600 -0.166500
vn 0.418800 0.890300 0.178900
vn 0.411500 0.908400 0.073900
vn 0.246200 0.965500 0.085000
vn 0.643300 0.713800 0.276700
vn 0.819800 0.515400 0.249500
vn 0.875700 0.410500 0.254100
vn 0.483000 0.852200 -0.201100
vn 0.431000 0.900200 -0.062500
vn 0.294200 0.939500 0.175400
vn 0.284800 0.957100 -0.052900
vn 0.674000 0.735600 -0.068300
vn 0.325400 0.895300 -0.304300
vn -0.653500 0.575500 0.491600
vn -0.712900 0.627800 0.312500
vn -0.251600 0.929600 0.269200
vn -0.881900 0.436600 -0.177700
vn -0.355600 0.926600 -0.122100
vn -0.523000 0.778100 0.347900
usemtl Material.001
s 1
f 1/1/1 2/2/2 3/3/3
f 4/4/4 5/5/5 6/6/6
f 8/7/7 9/8/8 10/9/9
f 2/2/2 1/1/1 12/10/10
f 7/11/11 14/12/12 15/13/13
f 8/7/14 11/14/15 16/15/16
f 18/16/17 19/17/18 20/18/19
f 20/18/19 21/19/20 22/20/21
f 23/21/22 24/22/23 25/23/24
f 26/24/25 27/25/26 5/5/5
f 28/26/27 29/27/28 23/21/22
f 26/24/25 17/28/29 31/29/30
f 32/30/31 33/31/32 34/32/33
f 36/33/34 37/34/35 14/12/12
f 7/11/11 6/6/6 38/35/36
f 37/34/35 36/33/34 11/14/15
f 39/36/37 30/37/38 18/16/39
f 35/38/40 34/32/33 13/39/41
f 37/34/35 13/39/41 34/32/33
f 17/28/42 20/18/19 22/20/21
f 30/37/43 23/21/22 19/17/18
f 33/31/32 32/30/31 41/40/44
f 30/37/38 39/36/37 41/40/44
f 10/9/9 2/2/2 13/39/45
f 40/41/46 18/16/39 17/28/29
f 14/12/12 34/32/33 33/31/32
f 15/13/13 33/31/32 39/36/37
f 16/15/16 11/14/15 36/33/34
f 29/27/28 42/42/47 24/22/23
f 19/17/18 25/23/24 21/19/20
f 4/4/4 15/13/13 40/41/46
f 9/8/8 3/3/3 2/2/2
f 43/43/48 1/1/1 3/3/3
f 45/44/49 46/45/50 47/46/51
f 49/47/52 50/48/53 51/49/54
f 43/43/48 52/50/55 12/10/10
f 53/51/56 54/52/57 44/53/58
f 55/54/59 48/55/60 51/49/54
f 56/56/61 57/57/62 58/58/63
f 60/59/64 61/60/65 56/56/61
f 62/61/66 63/62/67 64/63/68
f 46/45/50 65/64/69 66/65/70
f 64/63/68 29/27/71 28/26/72
f 68/66/73 59/67/74 66/65/70
f 69/68/75 70/69/76 32/30/77
f 54/52/57 71/70/78 72/71/79
f 73/72/80 45/44/49 44/53/58
f 48/55/60 72/71/79 71/70/78
f 58/58/63 67/73/81 75/74/82
f 52/50/55 69/68/75 35/38/83
f 69/68/75 52/50/55 71/70/78
f 60/59/64 56/56/61 59/67/74
f 57/57/62 64/63/68 67/73/81
f 41/40/84 32/30/77 70/69/76
f 41/40/84 75/74/82 67/73/81
f 52/50/55 43/43/48 49/47/52
f 59/67/74 58/58/63 74/75/85
f 70/69/76 69/68/75 54/52/57
f 75/74/82 70/69/76 53/51/56
f 72/71/79 48/55/60 55/54/59
f 63/62/67 42/42/86 29/27/71
f 61/60/65 62/61/66 57/57/62
f 74/75/85 53/51/56 47/46/51
f 43/43/48 3/3/3 50/48/53
f 7/11/11 4/4/4 6/6/6
f 11/14/87 8/7/7 10/9/9
f 13/39/45 2/2/2 12/10/10
f 4/4/4 7/11/11 15/13/13
f 17/28/42 18/16/17 20/18/19
f 19/17/18 23/21/22 25/23/24
f 4/4/4 26/24/25 5/5/5
f 30/37/43 28/26/27 23/21/22
f 27/25/26 26/24/25 31/29/30
f 35/38/40 32/30/31 34/32/33
f 7/11/11 36/33/34 14/12/12
f 36/33/34 7/11/11 38/35/36
f 10/9/88 37/34/35 11/14/15
f 40/41/46 39/36/37 18/16/39
f 12/10/89 35/38/40 13/39/41
f 14/12/12 37/34/35 34/32/33
f 31/29/90 17/28/42 22/20/21
f 18/16/17 30/37/43 19/17/18
f 39/36/37 33/31/32 41/40/44
f 28/26/91 30/37/38 41/40/44
f 37/34/92 10/9/9 13/39/45
f 26/24/25 40/41/46 17/28/29
f 15/13/13 14/12/12 33/31/32
f 40/41/46 15/13/13 39/36/37
f 38/35/36 16/15/16 36/33/34
f 23/21/22 29/27/28 24/22/23
f 20/18/19 19/17/18 21/19/20
f 26/24/25 4/4/4 40/41/46
f 10/9/9 9/8/8 2/2/2
f 44/53/58 45/44/49 47/46/51
f 48/55/60 49/47/52 51/49/54
f 1/1/1 43/43/48 12/10/10
f 47/46/51 53/51/56 44/53/58
f 59/67/74 56/56/61 58/58/63
f 57/57/62 62/61/66 64/63/68
f 47/46/51 46/45/50 66/65/70
f 67/73/81 64/63/68 28/26/72
f 65/64/69 68/66/73 66/65/70
f 35/38/83 69/68/75 32/30/77
f 44/53/58 54/52/57 72/71/79
f 72/71/79 73/72/80 44/53/58
f 49/47/52 48/55/60 71/70/78
f 74/75/85 58/58/63 75/74/82
f 12/10/10 52/50/55 35/38/83
f 54/52/57 69/68/75 71/70/78
f 68/66/73 60/59/64 59/67/74
f 58/58/63 57/57/62 67/73/81
f 75/74/82 41/40/84 70/69/76
f 28/26/72 41/40/84 67/73/81
f 71/70/78 52/50/55 49/47/52
f 66/65/70 59/67/74 74/75/85
f 53/51/56 70/69/76 54/52/57
f 74/75/85 75/74/82 53/51/56
f 73/72/80 72/71/79 55/54/59
f 64/63/68 63/62/67 29/27/71
f 56/56/61 61/60/65 57/57/62
f 66/65/70 74/75/85 47/46/51
f 49/47/52 43/43/48 50/48/53
